<?xml version="1.0" standalone="no"?>
<!DOCTYPE svg PUBLIC "-//W3C//DTD SVG 20010904//EN"
 "http://www.w3.org/TR/2001/REC-SVG-20010904/DTD/svg10.dtd">
<svg version="1.0" xmlns="http://www.w3.org/2000/svg"
 width="850.000000pt" height="600.000000pt" viewBox="0 0 850.000000 600.000000"
 preserveAspectRatio="xMidYMid meet">

<g transform="translate(0.000000,600.000000) scale(0.100000,-0.100000)"
fill="#000000" stroke="none">
<path d="M4110 5564 c-390 -27 -725 -120 -1065 -298 -618 -324 -1086 -891
-1288 -1561 -139 -464 -148 -925 -27 -1401 46 -179 91 -303 175 -479 53 -112
203 -370 224 -385 4 -3 18 -21 31 -40 13 -19 29 -40 35 -46 5 -6 21 -26 35
-45 30 -41 112 -131 201 -219 327 -325 745 -560 1205 -675 222 -55 348 -69
629 -69 224 0 279 4 395 23 406 69 742 202 1069 423 122 83 113 75 261 205 64
56 146 134 181 174 35 39 75 84 89 99 14 15 35 40 47 56 12 16 37 50 56 75
327 434 510 992 510 1554 1 318 -49 599 -156 895 -49 134 -208 459 -229 468
-5 2 -8 8 -8 12 0 5 -28 49 -61 97 -207 297 -437 520 -734 715 -118 78 -348
201 -436 233 -253 94 -401 134 -614 166 -125 19 -408 31 -525 23z m-510 -213
c0 -13 -102 -184 -115 -193 -5 -4 -41 -20 -80 -34 -242 -92 -531 -293 -780
-541 l-70 -69 -107 14 c-60 9 -108 18 -108 21 0 3 16 24 36 46 282 318 649
569 1034 708 161 58 190 65 190 48z m1753 -151 c182 -88 377 -214 510 -328
110 -95 166 -149 258 -250 57 -62 169 -205 169 -214 0 -9 -133 4 -152 14 -10
4 -36 36 -59 70 -50 73 -254 280 -359 365 -101 81 -275 199 -384 259 -78 43
-91 54 -107 92 -11 24 -19 46 -19 48 0 11 31 -1 143 -56z m-1668 -126 c158
-16 373 -78 523 -150 l94 -46 -6 -81 c-3 -45 -9 -260 -12 -478 l-7 -396 -61
-32 c-105 -56 -147 -81 -278 -168 -134 -88 -380 -267 -461 -335 -39 -32 -53
-39 -75 -33 -15 3 -124 41 -242 84 -118 44 -302 110 -409 149 -140 50 -197 75
-202 88 -11 29 -10 253 2 404 14 174 44 338 66 363 19 21 289 248 338 284 17
12 57 42 90 66 90 67 297 194 384 234 108 51 142 62 171 58 14 -2 52 -7 85
-11z m1656 -80 c356 -242 614 -478 750 -684 l49 -74 0 -96 c0 -122 -14 -279
-41 -450 l-21 -136 -127 -41 c-321 -105 -699 -223 -713 -223 -9 0 -22 7 -29
16 -11 13 -94 82 -239 197 -8 7 -29 23 -46 37 -17 14 -46 36 -64 50 -82 61
-320 244 -371 285 -31 25 -62 45 -68 45 -12 0 -17 904 -5 935 14 35 228 114
419 155 166 35 369 67 385 62 8 -3 63 -38 121 -78z m-2745 -1478 c164 -70 584
-228 723 -272 41 -14 76 -25 77 -27 1 -1 16 -56 34 -122 44 -167 203 -686 242
-787 11 -30 5 -42 -58 -111 -22 -23 -98 -112 -169 -197 -72 -85 -132 -157
-136 -160 -10 -10 -165 -206 -207 -263 -50 -67 -41 -66 -212 -17 -121 34 -202
67 -367 146 l-133 64 -54 107 c-144 291 -271 643 -307 854 -11 67 -10 85 5
150 18 74 109 267 144 304 10 11 33 42 52 70 34 50 267 295 280 295 3 0 42
-15 86 -34z m3632 -146 c74 -89 69 -82 146 -200 38 -58 77 -117 87 -132 11
-15 19 -30 19 -33 0 -3 11 -22 23 -43 13 -20 36 -58 50 -85 l27 -47 -25 -133
c-58 -314 -134 -581 -224 -792 -28 -65 -90 -186 -104 -203 -29 -36 -238 -118
-432 -171 -168 -45 -344 -85 -349 -80 -2 2 -72 108 -157 234 -85 127 -158 235
-164 241 -5 6 -56 81 -113 166 l-104 156 17 32 c34 65 131 311 189 478 36 102
87 250 122 352 19 54 19 55 79 71 234 67 361 104 430 126 152 49 368 123 374
128 3 3 16 5 30 3 16 -2 43 -25 79 -68z m-4380 -449 l69 -53 7 -82 c6 -75 27
-208 42 -266 54 -212 156 -467 268 -665 l39 -70 -16 -85 c-9 -47 -19 -111 -23
-144 l-6 -58 -54 81 c-30 44 -54 82 -54 85 0 2 -17 33 -38 67 -136 225 -246
548 -292 851 -24 164 -38 402 -22 397 6 -2 43 -28 80 -58z m4912 -43 c0 -204
-78 -599 -161 -810 -70 -181 -237 -498 -261 -498 -4 0 -14 16 -23 36 -14 35
-14 36 33 112 58 94 117 215 151 312 7 19 17 44 22 55 55 129 149 584 149 723
0 25 62 102 82 102 4 0 8 -15 8 -32z m-1954 -696 c6 -4 48 -68 94 -142 46 -74
114 -181 152 -238 37 -56 68 -107 68 -112 0 -4 4 -10 9 -12 5 -1 32 -38 60
-82 28 -43 73 -109 101 -146 27 -37 50 -74 50 -81 0 -21 -83 -152 -148 -234
-78 -97 -132 -155 -266 -284 l-77 -74 -202 -24 c-265 -32 -708 -37 -881 -9
-61 10 -119 22 -130 28 -53 28 -276 273 -276 303 0 4 -13 25 -29 48 -33 49
-112 205 -142 279 -23 59 -26 53 76 174 36 44 72 86 78 94 24 29 182 225 199
245 9 11 61 74 115 140 l98 120 330 -2 c267 -2 534 4 690 15 11 1 25 -2 31 -6z
m-1067 -1538 c293 -58 578 -59 967 -3 l151 22 89 -32 c49 -18 96 -35 104 -38
21 -7 -8 -17 -165 -59 -328 -86 -701 -102 -1039 -44 -114 19 -328 72 -381 94
l-30 13 50 26 c28 14 63 35 79 45 26 18 31 19 64 5 19 -8 69 -21 111 -29z"/>
</g>
</svg>
